<?xml version="1.0" standalone="no"?>
<!DOCTYPE svg PUBLIC "-//W3C//DTD SVG 20010904//EN"
 "http://www.w3.org/TR/2001/REC-SVG-20010904/DTD/svg10.dtd">
<svg version="1.0" xmlns="http://www.w3.org/2000/svg"
 width="3368.000000pt" height="3368.000000pt" viewBox="0 0 3368.000000 3368.000000"
 preserveAspectRatio="xMidYMid meet">
<metadata>
Created by potrace 1.14, written by Peter Selinger 2001-2017
</metadata>
<g transform="translate(0.000000,3368.000000) scale(0.100000,-0.100000)"
fill="#000000" stroke="none">
<path d="M19535 26319 c-56 -8 -107 -32 -141 -65 -17 -16 -79 -62 -138 -103
-87 -59 -121 -76 -172 -87 -132 -27 -199 -75 -231 -164 -15 -42 -22 -50 -43
-50 -51 0 -125 -47 -213 -134 -98 -97 -111 -104 -242 -136 -49 -12 -101 -25
-115 -28 -66 -18 -275 -2 -346 26 -70 28 -159 25 -208 -9 -43 -29 -46 -36 -53
-119 -3 -36 -13 -81 -23 -100 -17 -34 -19 -35 -71 -33 -112 4 -185 3 -213 -2
-63 -13 -127 -48 -166 -94 -93 -105 -139 -147 -215 -196 -164 -107 -294 -135
-462 -101 -107 22 -154 10 -185 -48 -19 -35 -48 -198 -48 -266 0 -133 60 -265
175 -384 l64 -66 5 -82 c3 -46 8 -141 12 -213 6 -128 5 -131 -21 -178 -44 -77
-55 -138 -55 -302 l-1 -150 -129 -98 c-71 -55 -147 -117 -169 -140 -42 -42
-81 -110 -81 -140 0 -9 -4 -18 -10 -18 -5 -1 -13 -2 -17 -3 -5 -2 -29 -6 -55
-10 -47 -8 -48 -9 -167 -170 -66 -88 -124 -165 -129 -171 -4 -5 -23 -31 -41
-57 -19 -27 -39 -48 -44 -48 -16 0 -47 -42 -47 -65 0 -11 -18 -38 -39 -59
l-39 -38 -144 5 c-78 4 -162 6 -184 7 -41 0 -42 1 -54 46 -15 54 -60 100 -106
108 -21 4 -49 25 -82 60 -105 111 -180 262 -232 466 -27 107 -31 143 -31 254
1 109 -9 139 -42 134 -14 -2 -30 7 -45 24 -12 14 -61 43 -110 63 l-87 38 -175
3 c-374 7 -389 6 -491 -36 l-47 -20 -101 35 c-72 24 -117 46 -160 80 -73 55
-155 95 -198 95 -23 0 -45 12 -80 43 -134 119 -142 129 -193 240 -89 196 -208
347 -314 398 -43 22 -45 25 -52 76 -12 100 15 186 79 253 82 85 85 160 6 201
-72 36 -152 16 -182 -47 -41 -85 -41 -356 -1 -478 30 -92 210 -446 279 -550
l33 -50 -41 -60 c-22 -34 -49 -67 -60 -75 -10 -7 -32 -26 -48 -42 -16 -15 -65
-51 -108 -79 -87 -56 -119 -97 -124 -160 -2 -22 -5 -41 -8 -44 -4 -4 -27 -8
-131 -22 -24 -3 -54 -7 -68 -9 -14 -2 -50 -7 -80 -10 -30 -3 -66 -8 -80 -10
-14 -2 -50 -6 -80 -9 -30 -4 -66 -8 -80 -10 -14 -3 -47 -7 -75 -11 -27 -3 -52
-9 -55 -12 -13 -13 162 -153 246 -196 47 -24 145 -44 202 -41 l52 3 1 -62 c1
-117 19 -191 64 -274 19 -34 41 -88 50 -120 41 -149 77 -195 160 -206 16 -2
32 -10 37 -18 8 -15 67 -208 73 -239 7 -35 36 -79 68 -104 31 -24 113 -50 128
-40 5 2 13 -5 19 -16 7 -13 7 -20 0 -20 -5 0 -10 -16 -10 -36 0 -26 8 -43 29
-65 25 -25 36 -30 66 -29 3 0 22 -7 43 -16 22 -10 72 -17 124 -19 145 -5 245
-38 323 -107 20 -17 58 -42 85 -54 27 -12 83 -46 125 -74 109 -73 140 -83 255
-75 l95 6 45 -41 c25 -22 65 -52 89 -67 44 -26 47 -27 250 -29 438 -5 443 -7
677 -185 55 -43 129 -92 165 -110 64 -32 105 -70 253 -233 39 -44 77 -85 84
-92 20 -20 71 -149 93 -233 24 -90 31 -228 17 -326 -20 -145 -119 -398 -194
-494 -37 -48 -268 -231 -324 -256 -78 -36 -116 -49 -180 -61 -51 -10 -218 -11
-265 -3 -143 27 -157 32 -191 61 -19 17 -58 70 -87 117 -56 92 -113 156 -153
171 -14 6 -45 11 -69 12 -35 1 -48 7 -60 24 -30 46 -74 83 -110 93 -45 12
-154 122 -190 191 -33 65 -108 145 -199 212 -45 33 -91 78 -106 102 -45 70
-123 111 -212 111 -27 0 -48 3 -48 8 0 23 -65 99 -99 117 -39 19 -100 21 -265
6 -37 -4 -63 4 -151 43 -22 10 -103 44 -180 75 -120 49 -148 65 -199 112 -32
30 -71 61 -86 69 -36 19 -85 11 -125 -19 l-32 -25 -17 53 c-35 112 -139 190
-295 221 -76 15 -160 38 -199 55 -26 11 -60 22 -77 24 -16 3 -38 16 -48 28
-98 125 -146 163 -233 180 -70 14 -98 42 -126 131 -15 47 -34 81 -55 102 -21
21 -45 66 -74 140 -43 112 -129 251 -199 324 -48 49 -89 104 -136 181 -41 67
-154 190 -176 190 -28 0 -37 18 -43 80 -8 90 -29 142 -64 163 -16 9 -36 17
-45 17 -20 0 -21 34 -2 86 32 92 40 187 38 464 l-2 275 35 70 c58 113 51 191
-33 400 -11 28 -25 81 -30 118 -12 76 -46 154 -92 207 -22 26 -48 90 -102 250
l-71 215 73 293 c40 162 78 295 84 297 102 28 134 55 143 123 4 30 12 42 37
56 71 38 146 126 146 171 0 8 10 19 23 24 12 5 57 25 100 45 43 20 88 38 100
41 54 11 89 12 129 3 153 -34 240 -25 323 33 22 16 67 38 99 49 108 37 156 92
156 179 0 84 -66 109 -153 58 -53 -31 -82 -90 -75 -156 3 -35 1 -41 -17 -43
-11 0 -31 -2 -45 -3 -61 -6 -238 -18 -270 -19 l-35 -1 -3 89 c-3 91 -12 116
-41 116 -22 0 -248 -163 -291 -210 -19 -21 -42 -52 -51 -68 -10 -18 -27 -31
-46 -35 -43 -9 -123 -66 -161 -117 -19 -25 -42 -48 -51 -51 -9 -4 -30 -24 -46
-45 -39 -52 -43 -55 -98 -83 -53 -27 -102 -86 -111 -135 -6 -29 -9 -32 -39
-30 -47 4 -112 -31 -139 -74 -12 -20 -35 -71 -49 -112 -26 -73 -28 -75 -70
-88 -24 -7 -105 -15 -179 -17 -352 -13 -428 -25 -541 -91 l-64 -38 -180 3
c-164 2 -181 3 -198 22 -34 36 -96 69 -190 100 -50 17 -107 37 -124 45 -56 25
-115 44 -139 44 -13 0 -24 3 -25 8 0 4 -3 16 -5 27 -3 11 -9 58 -14 105 -11
101 -10 98 -65 270 -24 74 -46 148 -50 164 -5 25 -9 28 -36 22 -48 -9 -107
-55 -177 -136 -71 -82 -97 -96 -240 -125 -195 -41 -331 -6 -449 114 -29 30
-53 58 -53 63 0 9 -82 1 -116 -12 -54 -21 -67 -65 -37 -123 23 -46 66 -97 81
-97 6 0 12 -4 12 -8 0 -11 131 -50 200 -60 30 -5 93 -7 140 -5 491 15 466 16
478 -31 13 -51 -4 -125 -40 -170 -43 -55 -50 -59 -132 -61 -51 -1 -83 -8 -114
-24 -51 -26 -122 -88 -122 -106 0 -20 60 -40 115 -39 28 0 80 11 117 23 l67
22 31 -23 c29 -21 42 -23 158 -23 80 0 135 -5 148 -12 24 -14 54 -70 54 -103
0 -57 65 -120 125 -120 31 0 61 14 93 44 28 25 29 25 307 27 l220 2 60 -29
c67 -31 63 -30 123 -43 121 -25 276 26 334 110 21 30 35 39 58 40 16 1 37 2
46 3 12 1 16 -11 18 -49 3 -49 29 -121 58 -158 14 -19 35 -23 156 -28 l62 -2
20 -41 c10 -23 25 -48 32 -56 14 -17 79 -50 97 -50 6 0 12 -19 13 -42 10 -250
-3 -404 -53 -666 -31 -161 -32 -163 -63 -176 -54 -24 -116 -75 -146 -123 -31
-49 -42 -82 -85 -262 -14 -63 -42 -144 -60 -180 -48 -96 -55 -131 -48 -245 12
-202 6 -436 -17 -626 -46 -389 -29 -612 61 -809 11 -24 23 -62 25 -84 9 -72
30 -92 106 -105 39 -7 41 -9 57 -62 29 -93 90 -173 173 -226 24 -15 40 -34 43
-52 12 -55 38 -91 80 -112 23 -11 46 -20 51 -20 5 0 15 -19 21 -43 9 -32 29
-59 78 -107 93 -91 95 -97 90 -226 -3 -60 -8 -125 -10 -144 -9 -59 -50 -135
-93 -171 -34 -28 -49 -34 -94 -35 -78 -2 -121 -28 -178 -112 -19 -27 -55 -34
-210 -37 -69 -2 -136 -6 -149 -9 -63 -14 -135 -39 -226 -76 -55 -23 -118 -44
-140 -47 -53 -9 -508 -8 -563 0 -93 14 -168 64 -312 206 -152 150 -199 191
-250 216 -19 9 -53 36 -75 60 -51 55 -137 102 -200 110 -55 8 -51 5 -169 145
-39 47 -88 103 -109 125 -21 22 -50 63 -64 90 -31 61 -61 95 -83 95 -10 0 -48
44 -93 108 -170 241 -255 344 -357 429 -36 30 -84 70 -108 90 -127 105 -190
127 -372 128 -74 0 -171 -4 -215 -8 -84 -8 -373 -10 -515 -3 -47 3 -112 12
-145 21 -60 16 -119 14 -131 -6 -7 -11 65 -108 130 -177 45 -47 112 -74 167
-67 20 3 42 -2 58 -13 63 -44 145 -75 210 -80 49 -4 99 -19 195 -59 168 -69
230 -85 352 -87 93 -1 105 -4 144 -30 84 -55 175 -160 305 -350 82 -121 157
-216 219 -276 25 -24 46 -49 46 -56 0 -24 42 -140 64 -179 14 -22 34 -47 47
-55 12 -8 44 -32 70 -53 l49 -37 0 -83 c0 -89 19 -170 48 -208 11 -13 24 -46
31 -74 18 -71 74 -187 125 -258 55 -78 62 -85 205 -237 207 -218 192 -198 188
-253 -6 -73 -35 -97 -124 -103 -61 -4 -82 -1 -154 26 -46 17 -104 32 -128 34
-55 5 -116 -15 -116 -38 0 -29 97 -117 163 -149 55 -26 74 -29 149 -29 85 0
88 -1 269 -78 121 -52 193 -77 211 -75 101 13 218 16 610 15 244 0 448 -2 455
-5 7 -2 31 -6 54 -9 22 -3 62 -16 90 -29 69 -35 102 -40 244 -42 83 -1 140 -7
170 -18 25 -8 88 -25 140 -37 52 -12 109 -31 126 -41 46 -28 79 -83 114 -191
17 -53 42 -113 56 -133 24 -36 24 -40 19 -182 -7 -197 8 -231 126 -292 48 -24
58 -36 95 -104 49 -93 77 -125 118 -133 26 -5 44 -26 118 -138 48 -72 101
-159 117 -193 34 -68 66 -192 76 -293 14 -149 54 -223 145 -270 28 -15 40 -30
59 -81 14 -35 50 -118 82 -184 81 -169 118 -284 125 -392 5 -83 3 -96 -35
-223 -23 -74 -59 -171 -81 -215 -34 -67 -42 -93 -47 -161 -3 -45 -1 -124 6
-175 6 -52 10 -112 10 -134 0 -22 -2 -580 -3 -1240 l-2 -1200 -22 -40 c-46
-86 -60 -174 -61 -405 -3 -307 -14 -378 -76 -479 -46 -75 -61 -121 -80 -248
-24 -155 -49 -231 -98 -304 -24 -35 -67 -103 -95 -150 -28 -47 -58 -86 -66
-86 -52 0 -105 -52 -132 -130 -13 -38 -62 -99 -85 -108 -35 -13 -99 -91 -150
-184 -34 -63 -64 -106 -85 -120 -62 -42 -153 -143 -223 -247 -98 -144 -133
-217 -135 -279 l-1 -49 50 -1 50 0 5 70 5 69 80 2 c44 1 99 7 123 13 78 21
162 81 208 146 21 30 382 642 413 700 9 16 19 32 22 35 3 3 23 36 45 74 21 38
46 81 54 95 41 69 150 255 318 541 102 173 229 389 282 480 54 91 106 181 117
200 18 32 459 782 513 873 l22 37 83 0 84 0 5 -42 c5 -36 27 -245 52 -498 3
-30 7 -71 9 -90 6 -50 13 -120 25 -240 17 -174 20 -204 25 -240 3 -19 7 -62
10 -95 8 -92 16 -166 20 -205 3 -19 14 -127 25 -240 11 -113 23 -223 25 -245
2 -22 7 -67 10 -100 3 -33 8 -78 10 -100 6 -53 11 -100 30 -285 15 -153 22
-222 30 -290 2 -19 6 -66 10 -105 7 -80 28 -163 55 -216 28 -54 114 -135 173
-163 52 -24 155 -48 169 -39 5 2 8 -29 8 -69 l0 -74 975 0 c638 1 974 4 972
10 -2 6 -41 32 -87 58 -410 236 -694 607 -790 1033 -44 193 -49 453 -11 628
93 436 337 763 695 933 182 86 420 126 613 102 268 -32 522 -196 688 -443 50
-75 120 -219 129 -268 2 -12 10 -44 16 -72 17 -72 15 -228 -4 -310 -48 -202
-186 -362 -361 -417 -143 -45 -326 -42 -475 8 -148 50 -230 145 -231 266 -1
113 68 196 195 231 37 11 55 12 108 8 28 -2 58 -42 58 -76 0 -36 -38 -85 -66
-85 -9 0 -32 9 -50 21 -39 24 -40 22 -18 -29 80 -192 318 -89 364 157 22 117
-21 233 -119 323 -113 105 -234 134 -393 93 -178 -45 -316 -182 -402 -399 -43
-106 -59 -198 -59 -331 0 -143 23 -246 83 -373 50 -104 87 -158 169 -245 132
-139 317 -237 511 -272 87 -15 263 -18 335 -4 28 5 62 12 76 14 53 10 182 58
247 92 148 78 266 181 373 326 158 212 252 451 294 747 9 61 9 292 1 360 -50
396 -221 743 -491 1001 -125 119 -238 199 -376 267 -85 41 -264 105 -324 116
-16 3 -68 12 -115 20 -60 11 -134 14 -255 11 -182 -4 -189 -5 -335 -37 -571
-125 -1048 -543 -1274 -1114 -42 -106 -92 -277 -111 -379 -3 -16 -7 -40 -10
-53 -34 -179 -40 -690 -11 -847 2 -11 7 -49 11 -85 4 -36 9 -73 11 -82 7 -38
-9 -14 -56 85 -111 234 -156 532 -127 843 18 200 94 497 174 684 29 66 75 165
84 180 5 8 12 22 16 30 21 47 136 228 197 310 196 262 402 431 707 578 203 98
459 179 624 198 22 2 49 6 60 9 44 9 169 17 277 18 102 0 274 -10 288 -18 3
-1 30 -6 60 -9 30 -4 73 -11 95 -17 22 -6 49 -13 60 -15 99 -18 302 -95 425
-161 344 -184 583 -436 768 -809 164 -328 230 -627 219 -988 -9 -316 -73 -570
-214 -850 -171 -340 -480 -697 -775 -893 -54 -36 -98 -68 -98 -72 0 -5 1199
-8 1221 -2 3 0 13 38 23 83 l18 83 67 1 c94 1 173 21 218 53 67 49 115 172
193 501 18 74 69 288 115 475 402 1637 413 1688 398 1769 -15 78 -207 190
-335 195 -14 1 -18 10 -18 35 l0 35 173 -6 c155 -5 495 -5 1107 0 253 2 297
-6 458 -85 84 -41 117 -64 177 -124 206 -205 272 -492 179 -779 -24 -74 -107
-245 -147 -307 -86 -130 -252 -261 -374 -296 -24 -7 -43 -19 -43 -26 0 -7 22
-18 49 -25 69 -17 150 -68 215 -135 114 -117 157 -238 152 -425 -2 -64 -6
-129 -10 -146 -38 -165 -79 -264 -161 -390 -139 -210 -336 -348 -593 -415
-106 -28 -112 -29 -222 -44 -52 -8 -87 -14 -77 -15 9 -1 17 -7 17 -13 0 -9 4
-8 10 2 5 8 10 10 10 5 0 -8 331 -11 1078 -10 l1077 2 3 76 3 77 -186 0 c-102
0 -185 2 -185 4 0 2 40 70 89 152 48 82 141 239 206 349 65 110 137 232 160
270 24 39 89 149 145 245 57 96 122 207 145 245 86 141 406 683 441 746 12 21
41 52 32 34 -3 -5 -1 -46 3 -90 4 -44 11 -111 14 -150 4 -38 8 -81 10 -95 2
-14 6 -63 10 -110 4 -47 8 -96 10 -110 2 -14 6 -63 10 -110 3 -47 8 -101 10
-120 4 -37 11 -114 20 -215 3 -33 7 -80 10 -105 2 -25 7 -76 10 -115 12 -140
22 -247 30 -315 2 -19 7 -71 10 -115 4 -44 8 -96 10 -115 4 -38 12 -129 20
-223 l5 -57 -210 0 -210 0 1 -74 c1 -60 5 -75 18 -78 13 -3 1307 -2 1349 1 8
1 12 23 12 76 l0 75 -180 0 c-99 0 -180 3 -181 8 0 4 -2 16 -3 27 -2 11 -6 58
-11 105 -4 47 -9 94 -11 104 -2 10 -6 51 -9 90 -3 39 -8 82 -10 96 -2 14 -7
57 -10 95 -3 39 -8 84 -10 100 -2 17 -6 64 -10 105 -4 41 -8 86 -10 100 -2 14
-7 57 -10 95 -4 39 -8 81 -10 95 -2 14 -6 54 -10 90 -5 62 -12 124 -20 200 -2
19 -7 64 -10 100 -3 36 -8 76 -10 90 -2 14 -7 60 -10 103 -4 43 -8 86 -10 95
-1 9 -6 53 -10 96 -4 43 -8 86 -10 95 -1 9 -6 52 -10 96 -3 44 -8 94 -10 110
-2 17 -6 56 -9 88 -4 31 -8 83 -12 115 -3 31 -7 71 -9 88 -3 18 -7 63 -10 100
-3 38 -7 80 -10 94 -2 14 -6 57 -9 95 -4 39 -8 86 -11 105 -2 19 -7 58 -9 85
-12 114 -16 158 -22 208 -4 28 -7 67 -7 85 0 27 -4 32 -26 33 -38 1 -134 1
-147 0 -6 -1 -78 -115 -159 -253 -82 -139 -183 -311 -225 -383 -42 -71 -110
-186 -150 -255 -40 -69 -100 -170 -132 -225 -32 -55 -63 -107 -68 -115 -8 -13
-62 -106 -120 -205 -9 -16 -64 -109 -120 -205 -57 -96 -108 -184 -114 -195 -6
-11 -51 -87 -100 -170 -48 -82 -120 -204 -158 -270 -39 -66 -88 -148 -109
-183 -22 -35 -39 -65 -39 -68 0 -2 -17 -33 -38 -67 -22 -34 -72 -119 -113
-189 -40 -70 -75 -126 -76 -124 -2 1 8 30 21 63 119 305 144 725 65 1112 -10
52 -19 122 -19 156 0 132 -52 334 -114 439 -13 22 -38 95 -56 161 -17 66 -50
165 -72 220 -45 109 -131 260 -153 269 -23 9 -44 61 -55 138 -17 121 -19 139
-25 228 -3 47 -8 101 -10 120 -2 19 -7 73 -10 120 -4 47 -8 96 -10 110 -2 14
-6 70 -10 125 -4 55 -8 111 -10 125 -14 118 -18 315 -19 960 0 410 3 797 8
860 12 153 13 169 15 212 1 33 6 40 43 59 79 40 126 105 167 230 12 36 33 81
47 100 41 56 85 158 107 249 18 74 26 91 67 135 64 69 85 128 85 240 0 50 -4
126 -9 170 -9 86 -9 172 0 187 11 17 13 381 3 443 -5 33 -20 99 -34 146 -19
68 -25 120 -29 235 -5 142 -4 152 19 209 16 40 42 76 76 109 96 92 184 261
208 401 14 77 24 91 213 286 l93 96 61 5 c74 7 118 33 194 113 106 112 109
115 143 115 55 0 98 18 211 84 122 73 141 78 311 80 124 1 156 13 183 69 6 15
18 39 25 53 7 17 46 47 101 80 125 74 175 126 195 203 6 21 13 23 71 26 135 5
217 73 233 195 3 17 12 26 35 32 24 7 361 217 533 334 43 29 46 30 174 39 55
4 114 8 130 10 17 2 72 7 124 10 51 4 101 8 110 10 9 1 30 -2 46 -6 108 -29
233 -9 395 63 73 33 191 79 214 84 103 22 106 22 286 10 121 -9 230 -9 268 0
46 11 128 54 169 89 32 27 51 35 99 40 99 10 163 24 199 41 34 16 95 76 95 93
0 11 88 22 200 27 325 13 805 18 819 9 10 -5 125 -18 156 -17 78 3 108 18 210
107 124 107 148 129 208 188 33 32 83 76 112 98 55 41 85 78 85 102 0 9 15 16
43 19 93 11 225 94 399 251 122 110 131 117 186 149 52 30 52 30 36 56 -43 73
-24 74 -221 -23 -210 -103 -345 -190 -427 -274 -46 -46 -63 -58 -73 -49 -17
13 -79 13 -147 -3 -29 -6 -71 -9 -92 -5 -21 3 -44 7 -50 8 -6 1 -11 24 -12 55
0 60 -30 131 -85 204 -56 74 -83 131 -102 208 -26 108 -49 166 -90 226 -38 55
-121 142 -129 134 -2 -2 5 -38 16 -79 25 -95 28 -233 6 -275 -21 -40 -55 -70
-102 -89 -32 -13 -65 -15 -190 -10 -385 14 -392 14 -468 -12 -39 -13 -77 -29
-85 -36 -8 -6 -30 -14 -50 -17 -31 -5 -38 -12 -53 -51 -26 -67 -71 -92 -222
-124 -19 -4 -28 -14 -33 -34 -3 -16 -19 -44 -34 -63 -26 -31 -30 -33 -55 -21
-42 19 -77 15 -182 -20 -97 -33 -120 -50 -127 -96 -4 -29 -4 -29 -74 -36 -123
-12 -290 -46 -408 -81 -66 -20 -124 -40 -130 -44 -12 -8 -77 -31 -106 -36 -53
-10 -272 -19 -459 -17 -113 0 -315 2 -450 2 l-245 2 -27 26 c-16 14 -28 30
-28 35 0 20 177 178 226 202 73 35 93 38 254 39 114 1 152 5 176 18 67 36 84
157 29 206 -30 26 -29 25 -198 23 -161 -2 -223 -22 -267 -83 -16 -22 -32 -49
-35 -59 -5 -13 -16 -19 -38 -19 -33 0 -97 -32 -97 -49 0 -5 -24 -21 -52 -34
-62 -29 -87 -50 -114 -96 -16 -28 -26 -35 -57 -37 -100 -9 -147 -39 -172 -110
-9 -28 -23 -42 -56 -58 -52 -25 -77 -58 -85 -111 -7 -47 -30 -82 -79 -119 -79
-61 -117 -68 -430 -81 -125 -5 -161 -17 -203 -72 -48 -63 -55 -68 -192 -116
-74 -26 -151 -54 -170 -62 -19 -7 -87 -32 -150 -55 -63 -23 -168 -61 -232 -85
-106 -40 -125 -44 -190 -41 -66 3 -88 -1 -218 -45 -99 -34 -156 -48 -180 -45
-30 3 -43 -2 -79 -35 l-44 -38 -136 2 c-122 1 -140 -1 -176 -20 -22 -12 -49
-30 -60 -40 -11 -11 -65 -43 -120 -72 -55 -30 -141 -76 -192 -103 l-91 -49
-30 18 c-111 65 -172 105 -178 115 -9 14 -8 303 1 367 3 25 15 71 26 100 73
198 74 415 4 610 -15 40 -25 92 -26 131 -2 67 -20 129 -38 131 -6 1 -17 2 -23
3 -7 1 -36 -4 -65 -12 -48 -14 -54 -13 -79 5 l-27 20 -2 199 c-2 109 -5 341
-8 514 -6 313 -2 389 29 545 28 145 52 212 84 235 29 21 44 53 56 125 8 51 49
95 137 147 122 73 167 140 152 227 -5 32 -2 40 30 71 34 33 40 35 106 36 62 1
75 5 107 31 20 16 47 49 60 71 13 23 31 42 40 42 47 0 112 69 112 119 0 22 11
26 95 36 28 3 57 8 65 10 8 2 42 6 75 10 49 5 78 17 160 65 126 74 156 96 228
167 67 67 108 134 132 218 16 53 63 129 118 189 9 11 18 26 18 33 1 7 2 16 3
21 1 4 5 28 9 54 6 31 15 51 30 61 43 29 135 123 187 192 64 84 113 183 137
276 l17 69 40 0 c86 0 200 59 300 155 33 31 83 63 143 91 52 24 96 44 98 44
12 0 182 110 198 128 11 12 31 20 52 20 105 0 188 50 272 163 50 68 59 89 33
84 -10 -2 -54 -7 -96 -10 -77 -7 -121 -19 -192 -51 -34 -16 -56 -36 -103 -92
-10 -12 -36 -22 -68 -26 -101 -13 -304 -96 -368 -150 -39 -33 -257 -171 -303
-192 -148 -68 -177 -99 -228 -249 -11 -33 -52 -107 -91 -165 -75 -110 -131
-158 -211 -180 -93 -26 -177 9 -244 103 -24 34 -50 74 -56 89 -15 31 -87 73
-155 88 -28 6 -108 13 -180 15 -223 7 -290 24 -368 90 -42 37 -75 43 -122 25
-51 -19 -75 -143 -36 -191 17 -21 26 -23 132 -24 63 -1 128 -5 144 -9 17 -3
44 -8 60 -11 17 -3 40 -7 51 -9 12 -2 37 -7 55 -10 73 -12 275 -47 300 -52 21
-4 28 -13 33 -37 13 -69 69 -148 155 -219 41 -34 47 -44 57 -101 17 -93 -11
-133 -140 -196 -87 -43 -128 -78 -143 -126 -9 -29 -13 -30 -84 -37 -133 -13
-183 -40 -214 -115 -13 -30 -18 -33 -57 -34 -24 0 -51 -2 -60 -4 -9 -2 -52 -6
-95 -9 -43 -3 -130 -14 -193 -25 -63 -11 -131 -22 -150 -26 -19 -3 -43 -8 -52
-11 -9 -3 -25 -6 -35 -9 -130 -24 -308 -106 -397 -181 -21 -18 -52 -36 -70
-40 -49 -10 -94 -50 -107 -94 -14 -47 -15 -48 -161 -53 -96 -3 -111 -6 -147
-30 -22 -15 -50 -45 -61 -67 -26 -51 -51 -61 -165 -65 -49 -1 -103 -8 -120
-14 -39 -16 -80 -56 -95 -92 -9 -20 -20 -29 -35 -29 -12 0 -24 -3 -28 -6 -3
-4 -32 -6 -64 -6 -95 0 -142 -28 -183 -109 -18 -34 -23 -37 -82 -44 -35 -4
-85 -8 -113 -10 -60 -2 -142 -36 -204 -85 -40 -31 -54 -35 -106 -36 -33 -1
-73 -2 -89 -3 -18 -1 -41 -14 -65 -38 -37 -37 -85 -55 -74 -27 11 29 -8 104
-35 135 -14 18 -47 41 -72 53 -25 12 -58 31 -75 42 -16 12 -70 43 -120 69 -72
39 -102 49 -150 52 -116 8 -176 40 -206 110 -23 54 -24 101 -4 130 9 13 46 31
99 48 61 19 87 33 96 50 9 18 34 30 99 50 47 14 110 35 138 45 31 10 70 16 95
14 24 -2 70 -6 103 -8 69 -6 119 7 155 39 14 12 46 35 72 49 60 35 133 106
158 156 29 57 47 145 44 218 -3 89 -9 101 -35 71 -11 -13 -53 -60 -92 -103
-40 -43 -79 -87 -88 -98 -119 -136 -139 -154 -171 -157 -18 -1 -49 -4 -68 -7
-19 -2 -125 -6 -235 -9 -229 -6 -255 -8 -350 -36 -117 -35 -160 -40 -215 -26
-19 5 -36 10 -38 12 -1 1 9 32 23 69 60 159 72 365 41 681 -14 148 -17 205 -9
205 13 0 116 100 170 165 28 33 96 125 152 205 134 193 128 185 192 260 71 83
114 120 142 121 12 0 31 2 42 4 11 3 45 7 75 10 30 3 66 7 80 10 143 28 190
45 249 89 24 18 48 26 75 26 34 0 71 7 141 24 42 11 146 69 190 107 11 9 80
36 152 59 90 28 149 54 185 79 38 27 79 44 143 60 49 12 110 32 135 44 48 24
125 95 134 125 4 10 25 29 49 42 130 71 228 135 277 181 30 28 66 53 80 56 43
8 94 44 132 93 21 27 61 62 93 80 63 36 95 79 95 126 0 28 -2 30 -37 30 -21 0
-56 -3 -78 -7z m-6384 -2953 c34 -50 74 -70 148 -72 53 -2 66 -6 79 -26 65
-95 152 -109 271 -42 39 21 46 23 60 10 14 -13 190 -70 248 -80 13 -3 31 -7
41 -10 19 -6 62 -14 107 -21 17 -3 41 -7 55 -10 14 -3 78 -6 143 -6 132 -1
125 5 91 -77 -23 -58 -27 -136 -9 -198 12 -42 28 -68 66 -106 48 -48 50 -53
53 -112 4 -71 24 -125 68 -179 l30 -39 -33 -71 c-82 -179 -70 -321 37 -433
l39 -40 0 -91 0 -90 -36 12 c-170 60 -459 67 -659 15 -41 -11 -82 -22 -91 -24
-23 -6 -59 -29 -59 -38 0 -5 -7 -8 -15 -8 -8 0 -15 4 -15 9 0 11 -55 31 -87
31 -13 0 -37 -7 -53 -15 -28 -14 -30 -14 -30 2 0 26 -81 126 -139 171 -97 77
-229 125 -378 137 -56 5 -73 3 -73 -7 -1 -27 -25 -46 -53 -41 -24 5 -27 10
-27 42 0 50 -18 150 -33 181 -52 111 -104 144 -217 143 -41 -1 -87 -6 -102
-11 l-26 -11 15 46 c28 80 7 164 -59 239 -31 35 -32 39 -35 148 -6 193 -27
251 -104 285 l-38 17 27 40 c21 30 27 51 27 91 0 38 3 49 12 41 35 -29 240 14
408 85 85 35 274 123 295 136 23 15 26 14 51 -23z m3293 -595 c33 -30 204
-143 281 -186 198 -111 369 -180 610 -248 44 -12 50 -17 52 -43 4 -55 13 -72
47 -93 41 -26 115 -41 145 -30 18 7 30 -1 78 -51 40 -43 57 -70 60 -93 5 -56
32 -113 92 -195 l57 -80 -4 -138 c-3 -122 -6 -141 -24 -157 -27 -26 -38 -60
-38 -116 0 -104 -90 -310 -181 -414 -88 -99 -243 -185 -373 -205 -61 -10 -170
-9 -221 2 -36 8 -299 56 -335 62 -14 2 -40 6 -57 9 -18 3 -37 15 -43 26 -9 17
-39 35 -72 44 -5 2 -35 3 -67 4 -57 1 -62 3 -101 45 -48 51 -119 88 -227 117
-88 23 -173 61 -195 86 -8 10 -36 58 -62 107 -26 49 -58 103 -71 120 -16 23
-24 50 -28 101 -4 39 -10 81 -13 95 -9 30 -71 137 -84 145 -6 4 -4 15 4 28 42
66 74 236 72 377 l-1 88 45 5 c53 6 93 45 110 107 7 25 17 40 26 40 26 0 70
31 88 60 17 30 24 58 25 103 1 15 6 27 13 27 25 0 90 55 109 91 10 21 19 58
19 83 l0 44 70 0 c57 0 80 4 118 25 58 31 52 31 76 8z m10404 -1661 c144 -29
190 -52 215 -109 20 -46 20 -77 -4 -201 l-11 -56 -59 30 c-33 16 -89 35 -125
42 -65 12 -220 12 -304 -1 -25 -3 -71 -10 -103 -15 -63 -10 -147 -52 -147 -74
0 -10 -19 -13 -75 -13 -86 0 -116 -15 -143 -69 -9 -20 -29 -43 -44 -52 -26
-15 -28 -15 -51 6 -38 35 -110 53 -232 56 -135 4 -264 -44 -355 -133 -48 -47
-61 -54 -91 -43 -17 7 -14 12 22 54 22 26 55 72 72 101 l32 53 40 -18 c22 -9
58 -18 80 -18 78 0 163 77 204 186 18 45 22 49 107 87 49 22 95 46 103 54 7 8
25 22 38 30 14 9 38 41 55 70 22 39 34 51 42 44 21 -17 118 -23 186 -12 36 7
94 14 130 18 36 3 66 7 68 8 13 11 261 -7 350 -25z"/>
<path d="M7926 12602 c-13 -3 -16 -13 -14 -42 2 -37 4 -39 42 -45 138 -21 293
-116 312 -190 16 -64 7 -105 -221 -1040 -170 -696 -216 -884 -291 -1192 -25
-103 -47 -195 -49 -203 -2 -8 -15 -51 -29 -95 -33 -102 -78 -181 -119 -206
-51 -31 -139 -51 -230 -52 -27 0 -50 -5 -52 -11 -21 -76 -35 -160 -27 -165 5
-3 54 -4 108 -1 89 4 243 4 1084 0 129 -1 253 1 275 4 22 2 72 7 110 11 60 5
188 28 274 49 333 79 604 328 717 658 45 131 57 200 57 328 0 107 -14 178 -51
260 -66 146 -230 280 -364 299 -7 1 15 12 49 25 181 67 328 208 427 409 98
200 127 311 122 467 -2 58 -6 119 -10 135 -38 162 -107 289 -216 393 -139 133
-346 210 -550 204 -174 -5 -1188 -7 -1256 -3 -45 3 -89 5 -98 3z m1389 -316
c198 -44 296 -153 299 -331 1 -100 -8 -166 -38 -269 -86 -296 -232 -463 -471
-539 -85 -27 -112 -29 -393 -34 l-273 -5 7 29 c3 15 11 46 16 68 6 22 11 47
13 55 2 8 17 70 34 137 17 67 32 133 35 145 3 19 113 472 132 543 2 11 14 56
25 100 22 82 27 104 28 118 2 14 510 -1 586 -17z m-332 -1490 c15 -3 37 -8 50
-10 36 -7 119 -37 146 -54 59 -36 113 -111 137 -191 36 -123 -28 -420 -135
-624 -116 -222 -290 -329 -591 -363 -56 -7 -530 -13 -541 -7 -4 1 7 56 23 120
17 65 33 134 38 153 12 55 79 321 90 360 6 19 42 161 80 315 39 153 73 287 76
297 5 17 24 18 302 14 163 -2 309 -6 325 -10z"/>
<path d="M24405 12597 c-13 -7 -14 -62 -1 -75 3 -3 31 -9 61 -13 31 -4 84 -21
119 -37 76 -36 165 -117 167 -153 3 -54 2 -86 -4 -124 -7 -46 -96 -425 -102
-435 -2 -3 -6 -17 -8 -31 -5 -26 -32 -137 -78 -324 -17 -66 -32 -129 -34 -140
-3 -11 -11 -47 -19 -80 -57 -230 -148 -603 -151 -615 -2 -8 -22 -91 -45 -185
-23 -93 -43 -178 -45 -187 -29 -135 -112 -433 -135 -485 -59 -130 -124 -166
-313 -175 -27 -1 -51 -6 -54 -11 -3 -5 -14 -45 -23 -88 -21 -92 -28 -86 104
-79 86 5 517 5 1046 0 438 -4 682 34 910 142 126 60 277 189 364 312 196 274
251 672 125 893 -28 49 -147 183 -162 183 -3 0 -22 10 -40 23 -19 13 -61 32
-93 42 l-59 18 45 15 c208 69 385 260 489 527 58 146 74 222 73 345 -2 328
-201 603 -511 705 -69 22 -210 42 -281 38 -113 -6 -1149 -9 -1238 -4 -52 3
-100 3 -107 -2z m1330 -300 c145 -25 229 -60 281 -120 36 -41 71 -107 80 -150
6 -30 6 -156 -1 -187 -2 -14 -10 -50 -16 -80 -61 -301 -232 -527 -457 -602
-113 -38 -190 -46 -448 -47 l-251 -2 23 93 c13 51 26 102 28 113 5 21 26 110
131 540 36 149 68 281 72 295 8 31 6 24 22 90 8 30 16 58 18 63 4 6 473 1 518
-6z m-265 -1501 c64 -12 165 -45 196 -65 45 -27 102 -102 125 -161 57 -149
-30 -523 -170 -729 -38 -57 -127 -149 -152 -156 -10 -4 -19 -10 -19 -14 0 -14
-160 -78 -235 -94 -109 -24 -191 -30 -447 -31 -157 -1 -238 2 -238 9 0 5 9 44
19 85 40 157 213 846 216 860 25 108 67 270 75 287 l9 22 293 -3 c161 -2 309
-7 328 -10z"/>
<path d="M19065 12298 c-2 -7 -13 -53 -25 -103 -24 -98 -95 -391 -196 -803
-35 -145 -64 -272 -64 -281 0 -16 19 -17 248 -16 256 2 293 5 402 32 198 48
366 208 450 425 49 127 69 211 84 360 9 88 -41 228 -102 285 -37 35 -116 70
-199 89 -92 21 -591 31 -598 12z"/>
<path d="M11862 11549 c-8 -12 -22 -36 -31 -53 -10 -17 -46 -78 -81 -136 -34
-58 -70 -118 -80 -135 -10 -16 -67 -113 -127 -215 -299 -505 -442 -747 -578
-975 -81 -137 -156 -268 -166 -290 -54 -119 25 -244 159 -250 31 -2 60 -3 65
-4 4 0 7 -32 7 -69 l0 -68 308 1 307 0 5 70 5 70 87 0 c48 -1 107 5 131 12 84
24 162 119 169 204 2 29 -10 209 -18 274 -1 11 -5 58 -9 105 -3 47 -8 95 -10
106 -2 12 -6 61 -10 110 -4 49 -8 100 -10 113 -3 14 -7 63 -10 110 -4 47 -8
93 -10 101 -2 8 -7 58 -10 110 -3 52 -8 106 -10 120 -3 14 -9 84 -15 155 -13
155 -19 217 -25 270 -2 22 -7 78 -11 125 -3 47 -9 102 -13 123 -6 36 -7 37
-19 16z"/>
<path d="M18810 10810 l-115 -5 -52 -205 c-175 -696 -263 -1050 -263 -1060 0
-9 69 -11 293 -7 247 4 306 8 383 25 244 55 375 156 482 368 99 196 158 492
123 619 -12 46 -62 129 -94 157 -77 66 -183 96 -372 104 -195 8 -268 9 -385 4z"/>
<path d="M9340 8602 c-14 -2 -29 -8 -35 -13 -6 -6 -10 -80 -10 -174 0 -91 -3
-166 -5 -167 -3 -1 -23 11 -46 25 -53 36 -87 45 -154 42 -174 -8 -274 -156
-264 -390 9 -195 94 -307 243 -319 70 -5 138 15 196 59 25 19 47 35 50 35 3 0
5 -15 5 -34 0 -19 5 -38 11 -41 19 -12 131 -8 139 4 4 7 7 224 7 482 0 368 -3
471 -13 480 -13 11 -80 17 -124 11z m-113 -470 c63 -45 67 -54 68 -168 l1
-106 -34 -34 c-98 -101 -203 -82 -236 43 -13 49 -14 132 -3 180 27 110 116
148 204 85z"/>
<path d="M11875 8600 l-30 -5 -3 -482 -2 -482 32 -9 c39 -10 129 -5 143 9 16
16 14 947 -2 961 -15 12 -92 17 -138 8z"/>
<path d="M17325 8602 c-11 -2 -25 -8 -30 -12 -15 -12 -14 -945 1 -960 13 -13
118 -17 152 -6 l22 7 0 479 c0 311 -4 481 -10 485 -13 8 -108 13 -135 7z"/>
<path d="M21030 8604 c-77 -28 -105 -55 -130 -121 -11 -29 -19 -57 -19 -61 1
-4 1 -33 0 -64 l-1 -58 -49 0 c-46 0 -50 -2 -55 -27 -9 -41 -4 -103 8 -111 6
-4 25 -8 41 -8 17 -1 36 -2 43 -3 9 -1 12 -60 12 -259 l0 -259 23 -9 c28 -13
137 -8 151 6 7 7 11 99 12 263 1 139 2 254 3 257 1 3 27 5 59 5 31 -1 63 3 70
8 12 10 17 93 6 121 -5 12 -21 16 -73 16 l-68 0 3 61 c4 89 35 116 114 98 23
-5 45 -7 48 -5 2 3 6 28 8 55 4 78 -14 94 -112 97 -43 2 -86 1 -94 -2z"/>
<path d="M25954 8599 l-31 -9 0 -479 0 -480 26 -9 c34 -11 130 -5 147 9 19 15
18 943 -1 959 -17 14 -102 20 -141 9z"/>
<path d="M26325 8602 c-11 -2 -24 -8 -28 -12 -14 -12 -11 -950 2 -963 13 -13
150 -12 164 2 12 12 12 950 0 962 -10 10 -107 18 -138 11z"/>
<path d="M23243 8568 c-41 -20 -42 -133 -1 -162 30 -21 134 -14 159 11 37 37
26 137 -18 154 -32 12 -112 10 -140 -3z"/>
<path d="M6430 8525 c-13 -15 -10 -30 29 -175 11 -41 33 -124 49 -185 16 -60
42 -155 57 -210 42 -154 67 -248 71 -269 2 -10 10 -29 19 -42 16 -24 37 -28
150 -26 62 1 72 2 89 15 14 11 64 184 110 382 51 222 57 239 70 175 22 -117
141 -538 156 -554 15 -15 33 -19 102 -19 108 -1 133 6 146 40 6 16 41 138 77
273 36 135 69 259 74 275 13 39 71 259 76 287 8 37 -12 48 -86 48 -94 0 -90 5
-134 -190 -10 -42 -59 -248 -81 -340 -14 -58 -28 -116 -30 -130 -7 -35 -15
-62 -19 -58 -3 3 -112 417 -120 458 -14 65 -58 229 -65 241 -12 19 -183 24
-198 6 -9 -10 -68 -241 -148 -577 -20 -84 -43 -150 -44 -127 0 17 -47 222
-111 487 -17 69 -33 136 -35 150 -8 43 -16 65 -28 72 -22 15 -163 9 -176 -7z"/>
<path d="M7973 8304 c-148 -38 -235 -168 -234 -349 0 -241 120 -357 359 -349
130 4 220 28 239 64 14 28 10 99 -6 109 -6 4 -36 -1 -66 -11 -181 -61 -319
-17 -332 105 l-5 42 212 0 c251 0 242 -4 235 108 -8 136 -54 215 -150 262 -65
32 -171 40 -252 19z m159 -131 c31 -15 53 -52 63 -106 l7 -37 -136 0 c-153 0
-152 -1 -121 78 28 70 116 100 187 65z"/>
<path d="M9860 8305 c-165 -44 -240 -162 -235 -371 3 -119 29 -191 91 -249 84
-79 271 -103 442 -55 60 16 65 24 70 89 4 59 4 61 -19 60 -13 0 -55 -9 -94
-19 -88 -23 -188 -21 -231 4 -40 24 -64 64 -67 113 l-2 38 206 0 c160 0 210 3
222 14 37 30 11 208 -41 282 -41 59 -127 99 -222 103 -41 2 -95 -2 -120 -9z
m166 -140 c28 -18 54 -71 54 -110 l0 -25 -135 0 c-107 0 -135 3 -135 14 0 23
22 80 39 100 39 46 124 56 177 21z"/>
<path d="M11290 8305 c-161 -43 -244 -175 -234 -375 4 -90 7 -106 32 -162 50
-114 163 -168 341 -162 90 3 209 32 221 55 12 21 15 78 6 106 -6 19 -10 20
-39 12 -103 -32 -139 -38 -208 -35 -51 1 -76 7 -96 22 -43 32 -64 67 -66 109
l-2 40 206 0 c159 0 210 3 223 14 21 18 22 128 0 200 -24 83 -95 151 -184 177
-42 12 -153 12 -200 -1z m182 -153 c19 -19 30 -42 34 -75 l7 -47 -137 0 -138
0 7 33 c18 86 77 132 155 122 31 -3 54 -14 72 -33z"/>
<path d="M12458 8315 c-2 -2 -16 -5 -33 -8 -160 -26 -256 -160 -257 -355 0
-118 25 -196 84 -255 71 -71 147 -96 271 -91 222 9 340 137 338 366 -1 222
-103 334 -312 342 -48 2 -89 2 -91 1z m148 -170 c37 -24 65 -98 65 -170 0
-154 -52 -225 -164 -225 -79 0 -132 53 -143 143 -3 23 -7 47 -8 52 -6 19 14
127 30 156 37 72 144 94 220 44z"/>
<path d="M13330 8310 c-38 -11 -102 -46 -127 -69 -32 -30 -46 -27 -41 9 3 19
-1 35 -9 42 -21 17 -124 14 -137 -4 -17 -23 -15 -893 2 -910 16 -16 153 -13
164 5 4 6 8 76 8 155 0 78 4 142 9 142 5 0 14 -7 22 -16 43 -52 162 -73 247
-45 70 24 107 57 142 127 40 79 45 106 44 239 -1 87 -6 122 -23 166 -25 64
-78 125 -130 146 -39 17 -133 24 -171 13z m96 -195 c28 -38 47 -130 39 -195
-12 -94 -62 -160 -122 -160 -43 0 -68 13 -115 58 l-38 36 0 107 0 107 47 41
c77 69 139 71 189 6z"/>
<path d="M14452 8305 c-48 -15 -85 -36 -124 -73 -29 -27 -33 -23 -29 28 2 32
-17 44 -71 44 -97 0 -88 46 -88 -461 0 -246 4 -454 8 -460 10 -16 147 -20 165
-5 9 8 12 47 12 149 -1 76 0 141 2 146 2 4 20 -5 38 -19 74 -56 186 -64 274
-19 55 27 90 67 119 135 58 135 42 358 -32 455 -58 76 -175 110 -274 80z m96
-174 c33 -34 52 -95 52 -173 0 -107 -41 -182 -106 -194 -51 -9 -83 3 -128 50
l-42 42 1 102 c0 95 2 103 28 135 57 72 144 88 195 38z"/>
<path d="M15189 8316 c-2 -2 -21 -6 -41 -9 -53 -7 -117 -42 -160 -88 -53 -57
-80 -135 -84 -244 -7 -208 59 -314 221 -358 67 -18 263 -12 297 9 4 3 18 7 30
9 35 7 57 40 56 88 0 63 -9 68 -81 45 -34 -11 -96 -21 -138 -24 -121 -6 -183
36 -196 135 l-5 36 212 0 c252 0 242 -5 236 115 -9 176 -100 272 -273 285 -38
2 -72 3 -74 1z m87 -136 c42 -14 73 -56 80 -109 l6 -41 -136 0 c-102 0 -136 3
-136 13 0 39 24 89 55 114 38 32 81 39 131 23z"/>
<path d="M15917 8309 c-169 -27 -269 -159 -269 -358 0 -225 117 -345 337 -345
182 1 296 76 339 224 43 150 14 320 -68 401 -72 71 -198 100 -339 78z m171
-164 c41 -34 62 -94 63 -173 1 -79 -7 -116 -32 -158 -46 -75 -170 -87 -233
-22 -42 44 -61 187 -36 265 28 85 65 112 152 113 46 0 62 -5 86 -25z"/>
<path d="M16815 8311 c-47 -12 -97 -38 -132 -71 -34 -32 -41 -30 -41 13 0 16
-4 33 -10 39 -15 15 -118 16 -133 1 -12 -12 -17 -892 -4 -912 8 -14 162 -14
170 -1 4 6 7 76 7 155 0 80 4 145 8 145 4 0 13 -7 21 -16 45 -55 173 -74 263
-40 58 22 125 95 151 167 16 44 20 78 20 184 -1 125 -2 132 -33 196 -32 67
-74 109 -128 129 -36 14 -121 20 -159 11z m65 -168 c40 -23 62 -78 65 -164 5
-117 -35 -202 -101 -215 -46 -9 -94 10 -137 54 l-37 38 2 104 c1 98 3 107 27
134 59 65 125 83 181 49z"/>
<path d="M17857 8309 c-87 -20 -175 -89 -207 -165 -37 -84 -48 -229 -25 -319
34 -135 142 -213 302 -219 118 -4 247 19 278 50 17 18 21 104 4 121 -7 7 -28
5 -72 -9 -34 -11 -96 -22 -138 -24 -122 -5 -186 39 -192 133 l-2 37 206 1
c159 0 210 3 222 14 13 10 17 30 17 81 0 187 -102 297 -282 304 -40 1 -90 -1
-111 -5z m166 -147 c24 -21 47 -73 47 -107 l0 -25 -134 0 -135 0 4 31 c11 81
77 134 154 124 25 -3 53 -13 64 -23z"/>
<path d="M19041 8304 c-24 -7 -67 -31 -96 -53 l-53 -40 0 35 c0 20 -5 41 -11
47 -15 15 -118 14 -134 -2 -18 -18 -18 -898 1 -914 13 -11 145 -12 163 -2 5 4
9 73 9 156 0 82 3 149 6 149 3 0 21 -12 40 -26 66 -50 153 -62 241 -33 121 40
194 199 180 394 -10 139 -62 236 -149 280 -43 21 -141 26 -197 9z m89 -161
c36 -21 61 -84 64 -166 4 -75 -7 -120 -41 -169 -45 -66 -115 -64 -189 4 l-44
41 0 106 0 107 38 36 c20 19 46 40 57 46 30 17 83 14 115 -5z"/>
<path d="M19802 8303 c-18 -8 -50 -34 -71 -56 l-39 -40 0 38 c0 20 -4 41 -9
46 -13 13 -83 17 -119 7 l-31 -8 -1 -324 c-1 -273 1 -326 13 -336 17 -14 105
-18 148 -7 l27 7 0 206 0 206 31 39 c46 59 81 73 137 59 36 -9 47 -8 53 2 17
26 13 137 -5 156 -19 20 -97 23 -134 5z"/>
<path d="M20260 8307 c-25 -5 -49 -13 -54 -18 -6 -5 -18 -9 -27 -9 -27 0 -116
-91 -138 -140 -33 -75 -45 -208 -28 -290 34 -154 134 -236 301 -243 130 -6
219 22 292 93 103 99 127 307 54 466 -21 47 -91 112 -130 121 -14 3 -30 10
-36 14 -16 13 -181 17 -234 6z m185 -161 c42 -28 58 -73 62 -172 2 -81 0 -97
-23 -141 -29 -59 -68 -83 -136 -83 -97 0 -151 75 -151 210 1 87 27 159 68 186
53 35 127 35 180 0z"/>
<path d="M21497 8309 c-50 -12 -112 -44 -146 -77 -30 -29 -88 -122 -76 -122 4
0 1 -7 -6 -16 -22 -27 -19 -236 5 -303 39 -111 145 -179 293 -185 121 -5 281
29 285 60 5 50 4 101 -4 110 -6 9 -25 7 -71 -8 -127 -40 -241 -33 -292 17 -24
25 -50 96 -42 118 2 8 63 12 211 12 249 0 240 -4 233 115 -11 179 -106 276
-279 284 -40 2 -90 -1 -111 -5z m150 -139 c34 -20 63 -75 63 -116 l0 -24 -136
0 -136 0 6 38 c9 48 34 83 77 104 44 23 86 23 126 -2z"/>
<path d="M22185 8310 c-114 -23 -185 -104 -180 -205 5 -106 46 -149 193 -205
82 -32 110 -52 117 -88 4 -25 -39 -71 -69 -73 -56 -4 -106 5 -158 28 -82 36
-94 27 -88 -62 2 -40 23 -61 79 -80 103 -34 259 -20 331 30 55 38 84 97 83
170 -1 103 -45 151 -189 206 -106 41 -124 53 -124 88 0 67 77 86 190 48 84
-28 90 -26 90 38 0 52 -19 79 -67 93 -52 16 -159 22 -208 12z"/>
<path d="M22765 8305 c-142 -42 -197 -138 -154 -271 14 -44 54 -78 134 -114
135 -60 153 -71 160 -97 11 -46 -21 -77 -91 -87 -25 -4 -120 18 -136 31 -7 6
-27 14 -45 18 -29 6 -33 4 -39 -19 -8 -33 1 -93 16 -111 29 -35 197 -60 285
-43 48 10 118 44 142 69 78 85 65 233 -26 295 -20 13 -72 38 -116 55 -124 48
-152 85 -99 134 22 20 34 24 82 21 32 -2 79 -13 106 -25 34 -16 52 -19 59 -12
10 10 12 81 2 112 -13 41 -194 70 -280 44z"/>
<path d="M23796 8303 c-105 -24 -186 -94 -222 -194 -22 -62 -29 -194 -14 -260
37 -158 134 -235 306 -243 237 -10 375 116 377 349 1 50 -1 104 -5 120 -23
114 -94 194 -200 226 -53 16 -178 17 -242 2z m185 -150 c41 -24 69 -87 72
-164 8 -156 -46 -239 -153 -239 -94 0 -146 58 -157 175 -9 97 11 167 59 210
34 31 44 35 94 35 35 0 67 -6 85 -17z"/>
<path d="M24710 8310 c-41 -11 -87 -38 -125 -71 l-35 -31 0 33 c0 53 -11 62
-77 62 -33 0 -65 -3 -71 -7 -9 -5 -12 -96 -12 -336 l0 -329 23 -7 c32 -11 138
-7 151 6 7 7 11 86 11 224 0 237 -2 226 73 276 68 45 122 37 157 -23 16 -28
19 -56 20 -249 0 -148 4 -221 12 -229 12 -12 145 -15 163 -4 13 8 12 512 -1
521 -5 3 -9 16 -9 28 0 32 -73 112 -115 126 -44 15 -132 20 -165 10z"/>
<path d="M25338 8304 c-73 -17 -134 -48 -148 -75 -15 -27 -3 -96 18 -108 10
-6 34 0 74 19 106 50 223 52 255 3 9 -14 17 -46 17 -71 l1 -46 -85 -2 c-162
-3 -263 -46 -304 -129 -33 -65 -16 -181 33 -226 83 -78 247 -84 350 -13 l36
24 3 -22 c2 -13 7 -27 12 -32 12 -12 119 -11 133 3 15 15 13 488 -4 538 -32
99 -103 142 -246 147 -50 2 -113 -3 -145 -10z m190 -527 c-84 -70 -197 -50
-198 36 0 65 34 88 150 96 l75 6 3 -55 c3 -52 1 -57 -30 -83z"/>
<path d="M10363 8302 c-54 -8 -55 -3 78 -390 67 -194 100 -277 114 -284 10 -6
61 -11 113 -11 79 0 96 3 111 19 19 19 221 604 221 637 0 10 -8 21 -17 25 -21
8 -125 7 -147 -1 -8 -3 -34 -68 -61 -154 -26 -81 -58 -182 -71 -223 -13 -41
-24 -80 -24 -87 0 -25 -19 -12 -29 20 -5 17 -39 125 -76 240 -64 201 -67 207
-93 208 -78 4 -99 4 -119 1z"/>
<path d="M23265 8302 c-11 -2 -25 -8 -30 -12 -15 -13 -13 -646 2 -661 13 -13
102 -17 146 -6 l27 7 0 330 c0 326 0 329 -21 335 -26 9 -97 13 -124 7z"/>
<path d="M26610 8300 c-37 -9 -32 -54 22 -190 25 -63 71 -182 103 -265 31 -82
66 -169 77 -193 l20 -43 -41 -100 c-22 -55 -41 -106 -41 -115 0 -22 36 -31
110 -28 80 4 86 10 129 136 39 112 85 242 185 530 42 119 76 226 76 237 0 12
-8 25 -17 28 -26 10 -142 8 -152 -2 -5 -6 -39 -104 -77 -220 -37 -115 -70
-213 -74 -218 -3 -4 -42 92 -86 213 -60 167 -83 222 -98 226 -29 9 -107 12
-136 4z"/>
</g>
</svg>
